<svg xmlns="http://www.w3.org/2000/svg" viewBox="0 0 136.88 41.31"><defs><style>.a{fill:#231f20;}.b{fill:none;}</style></defs><title>beaus-black-logo</title><path class="a" d="M61.27,30.06h1.49V20.68H61.27v-2.2h6.12a4.6,4.6,0,0,1,2.86.71,3.3,3.3,0,0,1,1.29,2.74,3.15,3.15,0,0,1-1.8,2.93,3.67,3.67,0,0,1,2.39,3.55,3.88,3.88,0,0,1-1.29,2.92,4.43,4.43,0,0,1-3.17.93H61.27Zm4.11-.1h1.45a3.43,3.43,0,0,0,1.91-.35,1.81,1.81,0,0,0,.77-1.51,1.87,1.87,0,0,0-.75-1.56,3.1,3.1,0,0,0-1.91-.41H65.38Zm0-6h1.33a2.82,2.82,0,0,0,1.78-.35,1.69,1.69,0,0,0-.1-2.68,3,3,0,0,0-1.66-.27H65.4Z"/><path class="a" d="M76,30.06h1.51V20.68H76v-2.2H86.19v4.15H83.56v-1.8H80.11v3.44h4v2h-4V30h3.46V28.09h2.63v4.17H76Z"/><path class="a" d="M98.82,30.33h1.53l-.81-2.07H94.69l-.79,2.07h1.49v1.93H89.77v-2.2h1.47l4-9.38H93.72v-2.2h4.61l4.83,11.58h1.47v2.2H98.82Zm-1.68-8.82h0l-1.76,4.73h3.51Z"/><path class="a" d="M118.91,18.48v2.2h-1.49v6.83a4.73,4.73,0,0,1-1.26,3.63,4.93,4.93,0,0,1-8.57-3.71V20.68h-1.49v-2.2h5.37v2.2h-1.26v6.49a3.37,3.37,0,0,0,.41,1.93,2.23,2.23,0,0,0,1.89,1,2.2,2.2,0,0,0,1.78-.83,3.24,3.24,0,0,0,.5-2.07V20.68h-1.25v-2.2Z"/><path class="a" d="M124.8,21.59a2.57,2.57,0,0,1-.48,1.8,1.71,1.71,0,0,1-1.58.6h-.37V22.67l.23,0c.79,0,.81-.64.81-1.24V21.2h-1.06V18.48h2.45Z"/><path class="a" d="M130.18,28.17a2,2,0,0,0,2,2.1,1.87,1.87,0,0,0,2-1.89c0-1.37-1.29-1.72-2.36-2a7.69,7.69,0,0,1-2.7-1.18,3.63,3.63,0,0,1-1.51-3,4.08,4.08,0,0,1,4.17-4,3,3,0,0,1,2.45,1.06v-.77h2v3.71H134a1.77,1.77,0,0,0-1.8-1.8,1.73,1.73,0,0,0-1.87,1.72c0,1.35,1.2,1.64,2.26,1.95a8.19,8.19,0,0,1,3,1.26,3.63,3.63,0,0,1,1.37,2.9,4.22,4.22,0,0,1-4.36,4.32,3.25,3.25,0,0,1-2.64-1.18v.91h-2.09V28.17Z"/><path class="a" d="M52.19,41.31H.82a.35.35,0,0,1,0-.71H52.19a.35.35,0,0,1,0,.71Z"/><path class="b" d="M33.47,15.61a2.59,2.59,0,0,1,.08.45,1.33,1.33,0,0,0,.46-.24Z"/><path class="b" d="M33.35,13.87l-.48.59.16.21,1.27.49A1.87,1.87,0,0,0,33.35,13.87Z"/><path class="b" d="M32.36,14l.34-.42-.08,0a3.34,3.34,0,0,0-1.11-.2h-.15l.26.16A4.69,4.69,0,0,1,32.36,14Z"/><path d="M7,23.59H18c.76,0,.86-.38.86-.78V12.05a2.78,2.78,0,0,0-2.75-2.79H9a2.78,2.78,0,0,0-2.76,2.79s0,10.48,0,11C6.24,23,6.24,23.59,7,23.59Zm6.36-12.81h3.61a.35.35,0,1,1,0,.71H13.34a.35.35,0,1,1,0-.71Zm0,1.56h4.43a.35.35,0,1,1,0,.71H13.34a.35.35,0,1,1,0-.71Zm0,1.56h4.43a.35.35,0,1,1,0,.71H13.34a.35.35,0,1,1,0-.71Zm0,1.56h4.43a.35.35,0,1,1,0,.71H13.34a.35.35,0,1,1,0-.71Zm0,1.56h4.43a.35.35,0,1,1,0,.71H13.34a.35.35,0,0,1,0-.71Zm0,1.56h4.43a.35.35,0,1,1,0,.71H13.34a.35.35,0,0,1,0-.71Zm0,1.56h4.43a.35.35,0,0,1,0,.71H13.34a.35.35,0,0,1,0-.71Zm0,1.56h4.43a.35.35,0,1,1,0,.71H13.34a.35.35,0,0,1,0-.71Zm-1.81-.85H7.79a.35.35,0,0,1,0-.71h3.69l-.07-.85H7.79a.35.35,0,1,1,0-.71h3.56l-.07-.85H7.79a.35.35,0,1,1,0-.71h3.44l-.07-.85H7.79a.35.35,0,1,1,0-.71H11.1L11,14.61H7.79a.35.35,0,1,1,0-.71H11l-.07-.85H7.79a.35.35,0,1,1,0-.71h3.06l-.07-.85H8.34a.35.35,0,1,1,0-.71h2.38l0-.41a.35.35,0,0,1,.71-.06l1,12.22a.35.35,0,0,1-.32.38h0a.35.35,0,0,1-.35-.33l0-.22H7.79a.35.35,0,1,1,0-.71H11.6Z"/><path d="M52,27.7l-.36-.38c0-.76,0-1.52-.08-2.27l.33-.4a.24.24,0,0,0,.05-.17l-.24-2.55a.24.24,0,0,0-.08-.16l-.46-.38c-.11-.71-.24-1.4-.39-2.06l.21-.28a.21.21,0,0,0,0-.18L50.53,17a.21.21,0,0,0-.12-.14l-.34-.14c-.16-.49-.33-.94-.52-1.37l.17-.24a.17.17,0,0,0,0-.18l-.61-1.15a.17.17,0,0,0-.15-.09h-.12c-.34-1.87-1.61-2.85-2.1-2.85H39.53c-1.79.11-3.37,2.46-4,4.33a3.59,3.59,0,0,0,.24,2.63v0l-.1.49a3.75,3.75,0,0,0-2.1-1.2v-.33a1.79,1.79,0,0,0,1.36-1.08c.38-1.06-.52-2.32-2.06-2.86a4.05,4.05,0,0,0-1.35-.24,3,3,0,0,0-.82.11V5.49a1.39,1.39,0,0,0-.87-1.21V.71A.73.73,0,0,0,29.26,0,1,1,0,0,0,29,0a.58.58,0,0,0-.59.36.45.45,0,0,0,0,.12h0V4.12a1,1,0,0,0-.67.61.83.83,0,0,0,0,.23h0v6.1L18.47,5.58a10.79,10.79,0,0,0-5.54-1.35C7.55,4.23,4.27,6.84,4.27,11h0v2.78a1.87,1.87,0,0,0-1.12.72,2.67,2.67,0,0,0,0,3.13,1.87,1.87,0,0,0,1.12.72v3.87h-1c-.78,0-1.5.67-2.06,1.82l-.06.13A10.61,10.61,0,0,0,.43,26.3l0,.18A20.42,20.42,0,0,0,0,30.63a21.22,21.22,0,0,0,1,6.76l.07.19a10.39,10.39,0,0,0,.66,1.48l.08.14.16.27.17.25a4.56,4.56,0,0,0,.44.53l.22.2h0a2.11,2.11,0,0,0,.34.24l.2.11.1,0c1.56.68,4.3.46,5-.39h0c1.26-1.17,2.1-4.19,2.12-7.76H11a1.4,1.4,0,0,0,1.38,1.08h5.74a1.28,1.28,0,0,0,1.44-1.08h4.57c.3,3.66,1.39,6.61,2.73,7.76h0a2.22,2.22,0,0,0,.45.3l0,0,0,0,0,0c1.53.72,4.32.51,5.1-.33,1.27-1.15,2.13-4.19,2.15-7.78h1.26l0,.09v.07l-.24.3a.21.21,0,0,0,0,.18l.48,1.9a.21.21,0,0,0,.12.14l.39.17,0,.12q.22.67.47,1.26l-.21.29a.17.17,0,0,0,0,.18l.6,1.16a.17.17,0,0,0,.15.09H38l0,0a7,7,0,0,0,.53.74l.18.21.12.13,0,0,.19.69a.17.17,0,0,0,.12.12,4,4,0,0,0,1.06.13h.13a12,12,0,0,0,7,0h.06a4.12,4.12,0,0,0,1.13-.14.17.17,0,0,0,.11-.12l.2-.75a5.82,5.82,0,0,0,.67-1h.28a.17.17,0,0,0,.15-.1l.53-1.19a.17.17,0,0,0,0-.17L50.34,37c.17-.47.32-1,.46-1.53l.41-.21a.21.21,0,0,0,.11-.15l.35-1.93a.21.21,0,0,0-.05-.18l-.29-.32q.11-.82.19-1.69l.4-.38a.24.24,0,0,0,.07-.16l.08-2.56A.24.24,0,0,0,52,27.7ZM1.43,27.46a21.18,21.18,0,0,0-.21,2.93.25.25,0,0,1-.26.28c-.16,0-.23-.1-.23-.29,0-2.43.49-5.6,1.89-7.23A.41.41,0,0,1,2.89,23S3,23,3,23s0,.09-.05.15A9.47,9.47,0,0,0,1.43,27.46Zm1,0a21.18,21.18,0,0,0-.21,2.93.25.25,0,0,1-.26.28c-.16,0-.23-.1-.23-.29,0-2.43.49-5.6,1.89-7.23A.41.41,0,0,1,3.93,23S4,23,4,23s0,.09-.05.15A9.47,9.47,0,0,0,2.47,27.46Zm1.8-3a12.55,12.55,0,0,0-.76,3,21.18,21.18,0,0,0-.21,2.93.25.25,0,0,1-.26.28c-.16,0-.23-.1-.23-.29a13.73,13.73,0,0,1,1.47-6.65Zm0-7c0,.07,0,.08-.09.06a1.63,1.63,0,0,1-.83-1.51,1.61,1.61,0,0,1,.83-1.52c.07,0,.08,0,.09.07ZM28.73.66a.2.2,0,1,1,.39,0V4S29.11,4,29,4h-.22c-.07,0-.08,0-.08-.09Zm-.48,13.25s.09,0,.09.11h0v.25c0,.07,0,.12-.11.08-1.87-1-4-2.13-4.64-2.47-.21-.12-.38-.16-.48-.1s-.16.31-.16.39v.07L28.23,15s.1.06.1.12v.25c0,.07,0,.11-.11.07h0l-5.29-2.76v1.17a1.79,1.79,0,0,0-.39.2V12.16a.89.89,0,0,1,.36-.73.86.86,0,0,1,.87.1C24.36,11.86,26.42,13,28.25,13.91Zm-3.2.76,0,0c-.06-.1,0-.11.1-.06a3,3,0,0,1,1.46,1.88c0,.15-.15.13-.22.09l-.83-.39a.21.21,0,0,1-.1-.2h0a2.61,2.61,0,0,0-.38-1.29h0ZM5,11a5.83,5.83,0,0,1,.53-2.51A5.19,5.19,0,0,1,7,6.61a9.53,9.53,0,0,1,5.91-1.67,10.16,10.16,0,0,1,5.39,1.37h0l9.22,5.51h0l0,0a.1.1,0,0,1,0,.09v.49c0,.05,0,.09-.08.06l-4.18-2.27a1.25,1.25,0,0,0-1.9.91V25.2a.61.61,0,0,1-.64.65H5.62A.7.7,0,0,1,5,25.18ZM21.86,28.87a.9.9,0,0,1-.22.67,1.21,1.21,0,0,1-.76.19H5.32a.77.77,0,0,1-.63-.21A.87.87,0,0,1,4.54,29V27.22a.53.53,0,0,1,.56-.61H21.19a.63.63,0,0,1,.48.18.83.83,0,0,1,.19.58ZM22.94,23a.2.2,0,1,1-.39,0V18.22c0-.11,0-.12.09-.09h0l.23.11h0c.08,0,.08.06.08.11Zm.56-5.37a1.45,1.45,0,0,1-1.23-1.6,1.45,1.45,0,0,1,1.23-1.6,1.45,1.45,0,0,1,1.23,1.6A1.45,1.45,0,0,1,23.5,17.66Zm1.68,12.73a.25.25,0,0,1-.26.28c-.16,0-.23-.1-.23-.29,0-2.43.49-5.6,1.89-7.23a.41.41,0,0,1,.28-.15s.06,0,.07,0,0,.09-.05.15a9.47,9.47,0,0,0-1.48,4.28A21.18,21.18,0,0,0,25.18,30.39Zm1.25-2.93a21.18,21.18,0,0,0-.21,2.93.25.25,0,0,1-.26.28c-.16,0-.23-.1-.23-.29,0-2.43.49-5.6,1.89-7.23A.41.41,0,0,1,27.9,23S28,23,28,23s0,.09-.05.15A9.47,9.47,0,0,0,26.43,27.46ZM29,23.18a9.47,9.47,0,0,0-1.48,4.28,21.18,21.18,0,0,0-.21,2.93.25.25,0,0,1-.26.28c-.16,0-.23-.1-.23-.29,0-2.43.49-5.6,1.89-7.23a.41.41,0,0,1,.28-.15S29,23,29,23,29,23.11,29,23.18Zm.18-11.49s0,.09-.08.09h-.2a1.6,1.6,0,0,0-.66.13s-.09,0-.09-.09V5a.36.36,0,0,1,0-.1c.07-.22.36-.36.73-.36H29a.09.09,0,0,1,.08.1Zm2.39,1.62a3.34,3.34,0,0,1,1.11.2l.08,0-.34.42a4.69,4.69,0,0,0-.73-.49l-.26-.16Zm-1.29.58a1,1,0,0,0,.29-.24h0a0,0,0,0,1,.06,0l.88.53a2.38,2.38,0,0,1,1.39,2.47v2.09a.2.2,0,1,1-.39,0V16.64a2,2,0,0,0-1.2-2.14l-1-.57a0,0,0,0,1,0,0Zm-.4,1c0-.07,0-.11.1-.07l1.4.73a.2.2,0,1,1-.18.35l-1.27-.66a.1.1,0,0,1-.05-.09Zm0,1.09c0-.07,0-.12.1-.08l1.39.72a.2.2,0,0,1-.09.37l-.09,0-1.23-.64s-.08,0-.08-.11Zm1.51,20.28c-1.05,0-2-2.3-2-5.13s.95-4.63,2-4.08,1.63,2.72,1.63,5S32.28,36.24,31.34,36.24Zm1.52-21.78.48-.59a1.87,1.87,0,0,1,.95,1.3L33,14.68Zm.61,1.14.54.21a1.33,1.33,0,0,1-.46.24A2.59,2.59,0,0,0,33.47,15.61ZM35,18.81a.2.2,0,0,1-.26,0,3,3,0,0,0-1.13-.58.12.12,0,0,1-.08-.1h0v-.34h0c0-.07,0-.09.09-.08a2.72,2.72,0,0,1,1.39.81A.2.2,0,0,1,35,18.81Zm2.59,7.47a.24.24,0,0,1-.21.13l-.1,0L36.48,26a.24.24,0,0,1-.13-.17l0-.13a.24.24,0,0,1,.35-.25l.86.51A.24.24,0,0,1,37.62,26.28ZM36,22.44a.24.24,0,0,1-.12-.21V22a.24.24,0,0,1,.37-.19l1.89,1.3a.24.24,0,0,1-.25.4Zm2.54-2.5a.24.24,0,0,1-.26.4l-2-1.16a.24.24,0,0,1-.11-.25l0-.22a.24.24,0,0,1,.37-.15Zm-.26-3.38a.56.56,0,0,1,.61.08l.16.11a.24.24,0,0,1-.12.44h0a.24.24,0,0,1-.12,0l-.56-.32A.17.17,0,0,1,38.29,16.55Zm2.86,7a.24.24,0,0,1-.14.21l-3,1.38-.1,0a.24.24,0,0,1-.12-.44l3-1.76a.24.24,0,0,1,.36.2Zm.24-3.16a.24.24,0,0,1-.14.2l-3,1.32-.09,0a.24.24,0,0,1-.12-.44l3-1.72a.24.24,0,0,1,.35.23Zm.5-3.15a.24.24,0,0,1-.14.17l-3.08,1.36-.1,0a.24.24,0,0,1-.11-.44l3.16-1.73a.24.24,0,0,1,.34.26Zm2-5.57q-.21.23-.43.49A11.92,11.92,0,0,0,42.31,14c-.88,1.46-3.39,1.63-5.2,1.63h-.8a.13.13,0,0,1-.14-.16v0a8.45,8.45,0,0,1,1.44-2.6,3.06,3.06,0,0,1,1.92-1.25h4.29c.1,0,.18.08.09.17Zm3.32,21.62c-1.42,0-2.69-3.52-2.69-7.87s1.28-7.1,2.69-6.26c1.26.75,2.19,4.18,2.19,7.72S48.52,33.33,47.25,33.33Z"/><path d="M47.83,27.36a.2.2,0,0,0,.28,0,3,3,0,0,0,0-2.54.2.2,0,0,0-.31.24,2.19,2.19,0,0,1,.18,1,1.85,1.85,0,0,1-.2,1A.2.2,0,0,0,47.83,27.36Z"/><path d="M47.71,27.91c.09,0,.08-.07.06-.09h0a3.64,3.64,0,0,1-.45-2,2.91,2.91,0,0,1,.35-1.61h0s0-.11-.09-.11h-.75a.24.24,0,0,0-.21.1,4.08,4.08,0,0,0,.07,3.6h0a.15.15,0,0,0,.13.07Z"/><path d="M31.6,32.17l.1,0a.2.2,0,0,0,.17-.1,1.52,1.52,0,0,0,0-1.28.2.2,0,1,0-.36.17,1.14,1.14,0,0,1,0,.91A.2.2,0,0,0,31.6,32.17Z"/><path d="M31.49,32.65c.08,0,0-.09,0-.09a2.26,2.26,0,0,1-.3-1.25,1.58,1.58,0,0,1,.29-1.08h0s0,0,0,0h-.53a.23.23,0,0,0-.21.1,2.41,2.41,0,0,0,.1,2.31.19.19,0,0,0,.14.06Z"/><path d="M31.15,27.27a.44.44,0,0,0-.26-.09.4.4,0,0,0-.31.15.12.12,0,0,0,0,.13.16.16,0,0,0,.16.07.39.39,0,0,1,.19.09c.73.51,1.25,2.08,1.31,4a6,6,0,0,1-.83,3.79c-.16.17-.27.24-.36.2a.12.12,0,0,0-.15.06.13.13,0,0,0,0,.14.44.44,0,0,0,.33.15.53.53,0,0,0,.32-.11,3.11,3.11,0,0,0,.88-1.72,9.81,9.81,0,0,0,.21-2.53,10,10,0,0,0-.41-2.6A3.33,3.33,0,0,0,31.15,27.27Z"/><path d="M46.85,19.37a.5.5,0,0,0-.2,0,.39.39,0,0,0-.26.09.21.21,0,0,0-.09.22.14.14,0,0,0,.16.08.34.34,0,0,1,.21,0c1,.49,1.83,3,2,6.15s-.39,5.79-1.33,6.6l-.17.12a.48.48,0,0,1-.24.09h0c-.07,0-.12,0-.14,0a.13.13,0,0,0,0,.13.5.5,0,0,0,.38.18A.51.51,0,0,0,47.4,33a4.22,4.22,0,0,0,1.39-2.71,18,18,0,0,0,.29-4.38C49,23.31,48.3,20.05,46.85,19.37Z"/></svg>