<svg xmlns="http://www.w3.org/2000/svg" viewBox="0 0 137.16 41.5"><defs><style>.a{fill:#f7f1e2;}</style></defs><title>beaus-beige-logo</title><path class="a" d="M61.55,30.33H63V20.94H61.55v-2.2h6.12a4.6,4.6,0,0,1,2.86.71,3.3,3.3,0,0,1,1.29,2.74A3.15,3.15,0,0,1,70,25.13a3.67,3.67,0,0,1,2.39,3.55,3.88,3.88,0,0,1-1.29,2.92,4.43,4.43,0,0,1-3.17.93H61.55Zm4.11-.1h1.45A3.43,3.43,0,0,0,69,29.88a1.81,1.81,0,0,0,.77-1.51A1.87,1.87,0,0,0,69,26.81a3.1,3.1,0,0,0-1.91-.41H65.66Zm0-6H67a2.82,2.82,0,0,0,1.78-.35,1.69,1.69,0,0,0-.1-2.68A3,3,0,0,0,67,20.94H65.68Z"/><path class="a" d="M76.26,30.33h1.51V20.94H76.26v-2.2H86.47v4.15H83.84V21.1H80.39v3.44h4v2h-4v3.65h3.46V28.36h2.63v4.17H76.26Z"/><path class="a" d="M99.1,30.6h1.53l-.81-2.07H95l-.79,2.07h1.49v1.93H90v-2.2h1.47l4-9.38H94v-2.2h4.61l4.83,11.58h1.47v2.2H99.1Zm-1.68-8.82h0L95.64,26.5h3.51Z"/><path class="a" d="M119.19,18.74v2.2h-1.49v6.83a4.73,4.73,0,0,1-1.25,3.63,4.93,4.93,0,0,1-8.57-3.71V20.94h-1.49v-2.2h5.37v2.2h-1.25v6.49a3.37,3.37,0,0,0,.41,1.93,2.23,2.23,0,0,0,1.89,1,2.2,2.2,0,0,0,1.78-.83,3.24,3.24,0,0,0,.5-2.07V20.94h-1.25v-2.2Z"/><path class="a" d="M125.08,21.85a2.57,2.57,0,0,1-.48,1.8,1.71,1.71,0,0,1-1.58.6h-.37V22.93l.23,0c.79,0,.81-.64.81-1.24v-.25h-1.06V18.74h2.45Z"/><path class="a" d="M130.46,28.43a2,2,0,0,0,2,2.1,1.87,1.87,0,0,0,2-1.89c0-1.37-1.29-1.72-2.36-2a7.69,7.69,0,0,1-2.7-1.18,3.63,3.63,0,0,1-1.51-3,4.08,4.08,0,0,1,4.17-4,3,3,0,0,1,2.45,1.06v-.77h2v3.71h-2.36a1.77,1.77,0,0,0-1.8-1.8,1.73,1.73,0,0,0-1.87,1.72c0,1.35,1.2,1.64,2.26,1.95a8.19,8.19,0,0,1,3,1.25,3.63,3.63,0,0,1,1.37,2.9,4.22,4.22,0,0,1-4.36,4.32,3.25,3.25,0,0,1-2.64-1.18v.91h-2.09V28.43Z"/><path class="a" d="M30.22,16.77l1.21.63.09,0a.19.19,0,0,0,.09-.37l-1.37-.72c-.08,0-.1,0-.1.08v.25C30.14,16.73,30.19,16.75,30.22,16.77Z"/><path class="a" d="M30.2,15.68l1.26.66a.19.19,0,1,0,.18-.35l-1.39-.72c-.08,0-.1,0-.1.07v.25A.1.1,0,0,0,30.2,15.68Z"/><path class="a" d="M33.83,18.59a.12.12,0,0,0,.08.1,3,3,0,0,1,1.11.57.19.19,0,0,0,.26-.29,2.69,2.69,0,0,0-1.37-.8s-.09,0-.09.08Z"/><path class="a" d="M31.64,36.48c.93,0,1.61-1.85,1.61-4.13s-.68-4.49-1.61-5-2,1.24-2,4S30.6,36.48,31.64,36.48Zm-.75-8.81a.39.39,0,0,1,.3-.15.44.44,0,0,1,.25.09,3.29,3.29,0,0,1,1.08,1.74,9.85,9.85,0,0,1,.41,2.57,9.7,9.7,0,0,1-.21,2.5,3.08,3.08,0,0,1-.87,1.7.53.53,0,0,1-.31.11.44.44,0,0,1-.33-.15.13.13,0,0,1,0-.14.12.12,0,0,1,.15-.06c.08,0,.19,0,.35-.2a5.89,5.89,0,0,0,.82-3.75c-.07-1.91-.58-3.47-1.3-4a.38.38,0,0,0-.19-.09.16.16,0,0,1-.16-.07A.12.12,0,0,1,30.89,27.67Zm.95,3.62a.19.19,0,1,1,.35-.17,1.5,1.5,0,0,1,0,1.27.19.19,0,0,1-.17.1l-.1,0a.19.19,0,0,1-.07-.27A1.12,1.12,0,0,0,31.83,31.29Zm-.81-.7a.23.23,0,0,1,.21-.1h.52s.06,0,0,0h0a1.57,1.57,0,0,0-.29,1.07,2.24,2.24,0,0,0,.3,1.24s.07.09,0,.09h-.53a.19.19,0,0,1-.13-.06A2.38,2.38,0,0,1,31,30.59Z"/><path class="a" d="M30.52,14.41l1,.56a2,2,0,0,1,1.19,2.11v2.07a.19.19,0,0,0,.39,0V17.09a2.35,2.35,0,0,0-1.38-2.45l-.87-.52a0,0,0,0,0-.06,0h0a1,1,0,0,1-.29.24h0A0,0,0,0,0,30.52,14.41Z"/><path class="a" d="M23.25,18.68h0L23,18.57h0c-.07,0-.09,0-.09.09v4.76a.19.19,0,1,0,.39,0V18.79S23.33,18.71,23.25,18.68Z"/><path class="a" d="M3.64,31a.25.25,0,0,0,.26-.28,20.93,20.93,0,0,1,.21-2.9,12.41,12.41,0,0,1,.75-2.94V24.1a13.58,13.58,0,0,0-1.45,6.58C3.41,30.87,3.48,31,3.64,31Z"/><path class="a" d="M3.57,23.41s0,0-.07,0a.4.4,0,0,0-.28.15c-1.38,1.61-1.87,4.75-1.87,7.15,0,.19.08.29.23.29a.25.25,0,0,0,.26-.28A21,21,0,0,1,2,27.79a9.37,9.37,0,0,1,1.47-4.24C3.56,23.49,3.58,23.44,3.57,23.41Z"/><path class="a" d="M4.77,15A1.6,1.6,0,0,0,4,16.52,1.61,1.61,0,0,0,4.77,18c.05,0,.09,0,.09-.06V15.08C4.86,15,4.84,15,4.77,15Z"/><path class="a" d="M4.6,23.41s0,0-.07,0a.4.4,0,0,0-.28.15c-1.38,1.61-1.87,4.75-1.87,7.15,0,.19.08.29.23.29a.25.25,0,0,0,.26-.28,21,21,0,0,1,.21-2.9,9.37,9.37,0,0,1,1.47-4.24C4.59,23.49,4.61,23.44,4.6,23.41Z"/><path class="a" d="M36.56,16h.79c1.79,0,4.27-.17,5.14-1.61a11.79,11.79,0,0,1,1.18-1.75q.21-.26.42-.48h0c.09-.09,0-.17-.09-.17H39.76a3,3,0,0,0-1.9,1.24,8.36,8.36,0,0,0-1.43,2.57v0A.13.13,0,0,0,36.56,16Z"/><path class="a" d="M37.76,26.31l-.85-.51a.23.23,0,0,0-.35.25l0,.13a.23.23,0,0,0,.13.16l.82.38.1,0a.23.23,0,0,0,.12-.43Z"/><path class="a" d="M41.22,23.39a.23.23,0,0,0-.24,0l-2.93,1.74a.23.23,0,0,0,.12.43l.1,0,2.93-1.36a.23.23,0,0,0,.14-.21v-.38A.23.23,0,0,0,41.22,23.39Z"/><path class="a" d="M36.26,22.82l1.87,1a.23.23,0,0,0,.25-.4L36.5,22.17a.23.23,0,0,0-.37.19v.25A.23.23,0,0,0,36.26,22.82Z"/><path class="a" d="M41.27,20.22l-3,1.7a.23.23,0,0,0,.12.44l.09,0,3-1.31a.23.23,0,0,0,.14-.19l0-.39a.23.23,0,0,0-.35-.22Z"/><ellipse class="a" cx="23.88" cy="16.52" rx="1.22" ry="1.59"/><path class="a" d="M47.38,33.6c1.25,0,2.17-2.84,2.17-6.34s-.92-6.89-2.17-7.63-2.66,1.89-2.66,6.19S46,33.6,47.38,33.6Zm-.86-13.77a.39.39,0,0,1,.26-.09.49.49,0,0,1,.2,0c1.43.67,2.08,3.89,2.2,6.45a17.76,17.76,0,0,1-.28,4.33,4.17,4.17,0,0,1-1.37,2.68.5.5,0,0,1-.28.08.49.49,0,0,1-.38-.18.12.12,0,0,1,0-.12s.07-.06.14,0h0a.47.47,0,0,0,.24-.09l.17-.12c.94-.8,1.47-3.43,1.32-6.53s-.94-5.6-2-6.08a.34.34,0,0,0-.21,0,.13.13,0,0,1-.16-.08A.21.21,0,0,1,46.52,19.84Zm1.43,5.57a.19.19,0,1,1,.31-.24,3,3,0,0,1,0,2.51.19.19,0,0,1-.29-.26,1.84,1.84,0,0,0,.19-1A2.17,2.17,0,0,0,47.95,25.41Zm-1.19-.82a.23.23,0,0,1,.2-.1h.74c.12,0,.12.07.09.11h0a2.87,2.87,0,0,0-.34,1.59,3.6,3.6,0,0,0,.45,2h0s0,.09-.06.09H47a.15.15,0,0,1-.13-.07h0A4,4,0,0,1,46.75,24.59Z"/><path class="a" d="M39.15,17.62h0a.23.23,0,0,0,.12-.43l-.16-.11a.55.55,0,0,0-.6-.07.17.17,0,0,0,0,.27l.55.32A.23.23,0,0,0,39.15,17.62Z"/><path class="a" d="M41.81,17.1l-3.13,1.72a.23.23,0,0,0,.11.44l.09,0,3.05-1.35a.23.23,0,0,0,.13-.16l.08-.37a.23.23,0,0,0-.34-.25Z"/><path class="a" d="M36.63,19a.23.23,0,0,0-.14.18l0,.22a.23.23,0,0,0,.11.24l1.95,1.15a.23.23,0,0,0,.26-.39L36.86,19A.23.23,0,0,0,36.63,19Z"/><path class="a" d="M13.83,18.15h4.39a.35.35,0,0,0,0-.7H13.83a.35.35,0,0,0,0,.7Z"/><path class="a" d="M13.83,13.54h4.39a.35.35,0,1,0,0-.7H13.83a.35.35,0,1,0,0,.7Z"/><path class="a" d="M6.2,26.2h15a.61.61,0,0,0,.64-.64V11.63a1.24,1.24,0,0,1,1.88-.9L27.88,13c.06,0,.08,0,.08-.06v-.48a.1.1,0,0,0,0-.09l0,0L18.76,6.87h0a10.05,10.05,0,0,0-5.33-1.36A9.42,9.42,0,0,0,7.58,7.17,5.13,5.13,0,0,0,6.08,9a5.77,5.77,0,0,0-.52,2.48v14A.7.7,0,0,0,6.2,26.2Zm.61-13.65A2.75,2.75,0,0,1,9.54,9.79h7a2.75,2.75,0,0,1,2.72,2.76V23.2c0,.39-.1.77-.85.77H7.54c-.73,0-.73-.58-.73-.58C6.81,22.92,6.81,12.55,6.81,12.55Z"/><path class="a" d="M13.83,22.77h4.39a.35.35,0,0,0,0-.7H13.83a.35.35,0,0,0,0,.7Z"/><path class="a" d="M13.83,12H17.4a.35.35,0,0,0,0-.7H13.83a.35.35,0,0,0,0,.7Z"/><path class="a" d="M21.29,30a1.19,1.19,0,0,0,.75-.19.89.89,0,0,0,.22-.66V27.71a.83.83,0,0,0-.18-.58.63.63,0,0,0-.48-.18H5.68a.53.53,0,0,0-.55.6V29.3a.86.86,0,0,0,.14.53A.76.76,0,0,0,5.9,30Z"/><path class="a" d="M13.83,21.23h4.39a.35.35,0,1,0,0-.7H13.83a.35.35,0,1,0,0,.7Z"/><path class="a" d="M8,22.42a.35.35,0,0,0,.35.35h3.83l0,.22a.35.35,0,0,0,.35.32h0a.35.35,0,0,0,.32-.38l-1-12.09a.35.35,0,0,0-.7.06l0,.4H8.88a.35.35,0,0,0,0,.7h2.41l.07.84h-3a.35.35,0,1,0,0,.7h3.08l.07.84H8.34a.35.35,0,1,0,0,.7h3.21l.07.84H8.34a.35.35,0,1,0,0,.7h3.33l.07.84H8.34a.35.35,0,0,0,0,.7h3.46l.07.84H8.34a.35.35,0,0,0,0,.7h3.58l.07.84H8.34a.35.35,0,1,0,0,.7H12l.07.84H8.34A.35.35,0,0,0,8,22.42Z"/><path class="a" d="M13.83,19.69h4.39a.35.35,0,0,0,0-.7H13.83a.35.35,0,0,0,0,.7Z"/><path class="a" d="M13.83,16.62h4.39a.35.35,0,1,0,0-.7H13.83a.35.35,0,1,0,0,.7Z"/><path class="a" d="M13.83,15.08h4.39a.35.35,0,1,0,0-.7H13.83a.35.35,0,0,0,0,.7Z"/><path class="a" d="M28.3,23.41s0,0-.07,0a.4.4,0,0,0-.28.15c-1.38,1.61-1.87,4.75-1.87,7.15,0,.19.08.29.23.29a.25.25,0,0,0,.26-.28,21,21,0,0,1,.21-2.9,9.37,9.37,0,0,1,1.47-4.24C28.3,23.49,28.32,23.44,28.3,23.41Z"/><path class="a" d="M29,23.53c-1.38,1.61-1.87,4.75-1.87,7.15,0,.19.08.29.23.29a.25.25,0,0,0,.26-.28,21,21,0,0,1,.21-2.9,9.37,9.37,0,0,1,1.47-4.24c0-.06.07-.12.05-.15s0,0-.07,0A.4.4,0,0,0,29,23.53Z"/><path class="a" d="M29.14,4.63h.22c.07,0,.08,0,.08-.09V1.28a.19.19,0,0,0-.39,0V4.54S29.07,4.63,29.14,4.63Z"/><path class="a" d="M25.79,16.42h0a.21.21,0,0,0,.1.2l.82.39c.07,0,.22,0,.22-.09A3,3,0,0,0,25.49,15c-.09,0-.16,0-.1.06l0,0h0A2.58,2.58,0,0,1,25.79,16.42Z"/><path class="a" d="M23.3,11.94a.88.88,0,0,0-.36.72v1.86a1.77,1.77,0,0,1,.39-.2V13.17l5.23,2.73h0c.08,0,.11,0,.11-.07v-.24c0-.07-.07-.1-.1-.12l-5.23-2.73v-.07c0-.08,0-.31.16-.38s.26,0,.47.1c.59.34,2.75,1.47,4.59,2.44.08,0,.11,0,.11-.08V14.5c0-.07,0-.09-.09-.11-1.81-.95-3.85-2-4.43-2.35A.85.85,0,0,0,23.3,11.94Z"/><path class="a" d="M27.27,23.41s0,0-.07,0a.4.4,0,0,0-.28.15C25.54,25.14,25,28.28,25,30.68c0,.19.08.29.23.29a.25.25,0,0,0,.26-.28,21,21,0,0,1,.21-2.9,9.37,9.37,0,0,1,1.47-4.24C27.27,23.49,27.29,23.44,27.27,23.41Z"/><path class="a" d="M28.51,12.4a1.58,1.58,0,0,1,.66-.13h.2c.08,0,.08,0,.08-.08v-7a.09.09,0,0,0-.08-.1h-.2c-.37,0-.65.14-.72.36a.35.35,0,0,0,0,.1v6.77C28.43,12.44,28.51,12.4,28.51,12.4Z"/><path class="a" d="M34.56,15.63a1.85,1.85,0,0,0-.94-1.28l-.48.59.16.21Z"/><path class="a" d="M32.64,14.44,33,14l-.07,0a3.3,3.3,0,0,0-1.1-.2h-.15l.26.16A4.63,4.63,0,0,1,32.64,14.44Z"/><path class="a" d="M33.82,16.51a1.31,1.31,0,0,0,.45-.24l-.53-.21A2.56,2.56,0,0,1,33.82,16.51Z"/><path class="a" d="M48.88,41.31h0Z"/><path class="a" d="M52.43,31.35a.86.86,0,0,0,.27-.6l.08-2.53a.87.87,0,0,0-.23-.62l-.18-.19c0-.6,0-1.19-.06-1.78l.17-.2a.87.87,0,0,0,.2-.64l-.24-2.52a.86.86,0,0,0-.31-.58l-.27-.22c-.09-.52-.18-1-.29-1.55l0,0a.83.83,0,0,0,.14-.72l-.5-1.87a.84.84,0,0,0-.49-.56l-.07,0c-.1-.28-.2-.55-.3-.8a.8.8,0,0,0,0-.78L49.78,14a.79.79,0,0,0-.3-.31c-.48-1.83-1.79-2.93-2.61-2.93H39.7c-1.75.11-3.28,1.88-4.14,3.76a4.08,4.08,0,0,0-2.2-1.73,4.63,4.63,0,0,0-1.73-.27V6.09a1.88,1.88,0,0,0-.86-1.58V1.36a1.33,1.33,0,0,0-1-1.29,1.31,1.31,0,0,0-1.69.72,1.16,1.16,0,0,0,0,.32V4.3a1.52,1.52,0,0,0-.63.81,1.49,1.49,0,0,0-.07.43v4.92L19.24,5.61a11.38,11.38,0,0,0-5.82-1.43c-5.68,0-9.2,2.81-9.2,7.32v2.3a2.55,2.55,0,0,0-1,.78,3.28,3.28,0,0,0,0,3.87,2.57,2.57,0,0,0,1,.78V22H3.84c-.71,0-1.74.4-2.6,2.16l-.07.14A11.11,11.11,0,0,0,.44,26.5l0,.19A20.76,20.76,0,0,0,0,30.93a21.73,21.73,0,0,0,1,6.89l.07.19a11,11,0,0,0,.69,1.55l.09.15.18.29.18.27a5.22,5.22,0,0,0,.42.51H1.44a.35.35,0,1,0,0,.7H52.26a.35.35,0,1,0,0-.7H49.42l0,0,.16-.6a6.2,6.2,0,0,0,.46-.65.8.8,0,0,0,.63-.47l.52-1.18a.8.8,0,0,0-.07-.78c.1-.31.19-.62.28-1l.15-.08a.84.84,0,0,0,.44-.59l.35-1.91a.83.83,0,0,0-.2-.71l-.09-.1c0-.38.09-.78.13-1.17ZM9.75,40.8c1.06-1.24,1.77-3.6,2-6.45a2,2,0,0,0,1.12.32h5.68A1.94,1.94,0,0,0,20.4,33.6h3.49c.34,3.18,1.28,5.85,2.53,7.2Zm23.75,0c1-1.23,1.75-3.53,2-6.33l.29,1.16a.84.84,0,0,0,.48.57l.13.05c.09.28.19.55.3.81a.8.8,0,0,0-.06.83L37.18,39a.8.8,0,0,0,.7.43c.13.19.26.37.4.53l.2.23.05.06.14.5Zm15.38.52h0Zm3.19-10.59a.23.23,0,0,1-.07.16l-.4.37q-.07.86-.19,1.67l.29.32a.21.21,0,0,1,0,.17l-.35,1.91a.2.2,0,0,1-.11.15l-.4.21c-.14.54-.29,1-.45,1.51l.18.22a.17.17,0,0,1,0,.17l-.52,1.18a.17.17,0,0,1-.14.1h-.28a5.76,5.76,0,0,1-.66,1l-.2.74a.17.17,0,0,1-.11.12,2.84,2.84,0,0,1-.38.08H39.55l-.15,0a.17.17,0,0,1-.11-.12L39.1,40l0,0-.12-.13-.18-.21a6.92,6.92,0,0,1-.53-.73l0,0h-.33a.17.17,0,0,1-.15-.09l-.59-1.15a.17.17,0,0,1,0-.17l.2-.28q-.24-.59-.47-1.25l0-.12-.39-.17a.2.2,0,0,1-.12-.14l-.48-1.88a.2.2,0,0,1,0-.18l.24-.3v-.07l0-.09H34.88c0,3.55-.87,6.57-2.12,7.7l-.15.13H27.35l-.2-.16h0c-1.32-1.13-2.4-4.06-2.7-7.68H19.94A1.27,1.27,0,0,1,18.51,34H12.84A1.39,1.39,0,0,1,11.47,33h-.34c0,3.53-.86,6.52-2.1,7.68H9a1.2,1.2,0,0,1-.17.16H3.63a2,2,0,0,1-.22-.16h0l-.22-.2a4.51,4.51,0,0,1-.44-.52l-.17-.25-.16-.27-.08-.14a10.26,10.26,0,0,1-.65-1.46l-.06-.18a21,21,0,0,1-1-6.69A20.2,20.2,0,0,1,1,26.82l0-.18a10.49,10.49,0,0,1,.69-2.11l.06-.12c.56-1.14,1.27-1.79,2-1.8h1V18.77a1.85,1.85,0,0,1-1.1-.71,2.64,2.64,0,0,1,0-3.1,1.85,1.85,0,0,1,1.1-.71V11.51h0c0-4.11,3.24-6.69,8.57-6.69a10.67,10.67,0,0,1,5.48,1.33L28,11.58v-6h0a.82.82,0,0,1,0-.23,1,1,0,0,1,.66-.61V1.11h0a.45.45,0,0,1,0-.12.57.57,0,0,1,.59-.35,1,1,0,0,1,.3,0,.72.72,0,0,1,.56.65V4.86A1.38,1.38,0,0,1,31,6.06V13.2a3,3,0,0,1,.81-.11,4,4,0,0,1,1.33.24c1.52.54,2.41,1.79,2,2.83a1.77,1.77,0,0,1-1.35,1.06v.33a3.71,3.71,0,0,1,2.07,1.18l.1-.49v0a3.55,3.55,0,0,1-.23-2.6c.63-1.85,2.19-4.18,4-4.29h7.14c.48,0,1.74,1,2.07,2.82h.12a.17.17,0,0,1,.15.09l.61,1.14a.17.17,0,0,1,0,.17l-.16.23c.18.42.35.88.51,1.36l.34.14a.2.2,0,0,1,.12.14l.5,1.87a.21.21,0,0,1,0,.18l-.21.28c.14.65.27,1.34.38,2l.45.37a.23.23,0,0,1,.08.16L52,24.84A.23.23,0,0,1,52,25l-.33.39c0,.74.07,1.49.08,2.25l.35.37a.23.23,0,0,1,.06.17Z"/></svg>